<svg width="122.88" height="122.88" xmlns="http://www.w3.org/2000/svg" xmlns:svg="http://www.w3.org/2000/svg">

 <g class="layer">

  <path clip-rule="evenodd" d="m17.89,0l88.9,0c8.85,0 16.1,7.24 16.1,16.1l0,90.68c0,8.85 -7.24,16.1 -16.1,16.1l-90.69,0c-8.85,0 -16.1,-7.24 -16.1,-16.1l0,-88.9c0,-9.83 8.05,-17.88 17.89,-17.88zm17.75,31.06l31.23,0c6.8,0 11.89,1.61 15.29,4.85c3.38,3.24 5.08,7.85 5.08,13.83c0,6.14 -1.85,10.95 -5.54,14.4c-3.69,3.47 -9.33,5.19 -16.92,5.19l-10.3,0l0,22.49l-18.84,0l0,-60.76zm18.84,25.97l4.62,0c3.65,0 6.21,-0.64 7.68,-1.9c1.47,-1.26 2.21,-2.87 2.21,-4.84c0,-1.91 -0.64,-3.52 -1.92,-4.85c-1.27,-1.33 -3.68,-1.99 -7.21,-1.99l-5.37,0l0,13.58l-0.01,0z" fill-rule="evenodd" id="svg_1"/>
 </g>
</svg>
